<?xml version="1.0" encoding="UTF-8"?>
<svg viewBox="0 0 261 261" xmlns="http://www.w3.org/2000/svg"><path d="m124 8.55 0.475 0.575 0.5-0.575c0.7-0.825 1.85-0.675 1.95 0.25 0.075 0.6-5.02 5.78-44.9 45.7l-45 45 0.05 42.2 0.075 42.2 0.8 0.075c0.5 0.05 0.925 0.275 1.07 0.575 0.175 0.3 0.525 0.475 1 0.475 0.475 0 0.825 0.175 1 0.5 0.2 0.4 0.525 0.5 1.5 0.5 0.975 0 1.3 0.1 1.5 0.5 0.175 0.325 0.525 0.5 1 0.5 0.475 0 0.825 0.175 1 0.5 0.175 0.325 0.525 0.5 1 0.5 0.475 0 0.825 0.175 1 0.5 0.175 0.3 0.525 0.5 0.95 0.5 0.475 0 0.925 0.3 1.55 1s1.08 1 1.55 1c0.425 0 0.775 0.2 0.95 0.5 0.175 0.3 0.525 0.5 0.95 0.5 0.475 0 0.925 0.3 1.55 1 0.525 0.6 1.1 1 1.45 1 0.8 0 10 9.25 10 10 0 0.35 0.4 0.925 1 1.45 0.65 0.575 1 1.1 1 1.5s0.35 0.925 1 1.5c0.65 0.575 1 1.1 1 1.5s0.35 0.925 1 1.5c0.7 0.625 1 1.08 1 1.55 0 0.425 0.2 0.775 0.5 0.95 0.4 0.2 0.5 0.525 0.5 1.5s0.1 1.3 0.5 1.5c0.325 0.175 0.5 0.525 0.5 1s0.175 0.825 0.5 1 0.5 0.525 0.5 1 0.175 0.825 0.5 1c0.4 0.2 0.5 0.575 0.55 2.08l0.075 1.8 85.4 0.125 45-45c39.9-39.9 45.1-45 45.7-44.9l0.675 0.075 0.075 13.3c0.05 13.1 0.05 13.3-0.45 13.6-0.45 0.25-0.5 0.525-0.5 3.5 0 2.98-0.05 3.25-0.5 3.5-0.4 0.2-0.5 0.525-0.5 1.5 0 0.975-0.1 1.3-0.5 1.5-0.325 0.175-0.5 0.525-0.5 1 0 0.475-0.175 0.825-0.5 1-0.325 0.175-0.5 0.525-0.5 1 0 0.475-0.175 0.825-0.5 1-0.3 0.175-0.5 0.525-0.5 0.95 0 0.475-0.3 0.925-1 1.55-0.6 0.525-1 1.1-1 1.45 0 0.8-66.2 67-67 67-0.35 0-0.925 0.4-1.45 1-0.625 0.7-1.08 1-1.55 1-0.425 0-0.775 0.2-0.95 0.5-0.175 0.325-0.525 0.5-1 0.5-0.475 0-0.825 0.175-1 0.5-0.175 0.325-0.525 0.5-1 0.5-0.475 0-0.825 0.175-1 0.5-0.2 0.4-0.525 0.5-1.5 0.5-0.975 0-1.3 0.1-1.5 0.5-0.225 0.45-0.525 0.5-2.5 0.5-1.98 0-2.27 0.05-2.5 0.5-0.275 0.5-0.525 0.5-71.5 0.5-71 0-71.2 0-71.5-0.5-0.225-0.425-0.525-0.5-2-0.5-1.47 0-1.78-0.075-2-0.5-0.175-0.3-0.525-0.5-0.925-0.5-0.45 0-0.95-0.325-1.55-0.975-0.575-0.625-1.17-1-1.65-1.08-0.625-0.05-0.775-0.2-0.825-0.825-0.075-0.475-0.45-1.08-1.07-1.65-0.65-0.6-0.975-1.1-0.975-1.55 0-0.4-0.2-0.75-0.5-0.925-0.425-0.225-0.5-0.525-0.5-2s-0.075-1.78-0.5-2c-0.5-0.275-0.5-0.525-0.5-71 0-70.5 0-70.7 0.5-71 0.45-0.25 0.5-0.525 0.5-3 0-2.48 0.05-2.75 0.5-3 0.4-0.2 0.5-0.525 0.5-1.5 0-0.975 0.1-1.3 0.5-1.5 0.325-0.175 0.5-0.525 0.5-1 0-0.475 0.175-0.825 0.5-1 0.325-0.175 0.5-0.525 0.5-1 0-0.475 0.175-0.825 0.5-1 0.3-0.175 0.5-0.525 0.5-0.95 0-0.475 0.3-0.925 1-1.55 0.6-0.525 1-1.1 1-1.45 0-0.8 66.2-67 67.1-67 0.35 0 0.925-0.4 1.45-1 0.625-0.7 1.08-1 1.55-1 0.425 0 0.775-0.2 0.95-0.5 0.175-0.325 0.525-0.5 1-0.5 0.475 0 0.825-0.175 1-0.5 0.175-0.325 0.525-0.5 1-0.5 0.475 0 0.825-0.175 1-0.5 0.2-0.4 0.525-0.5 1.5-0.5 0.975 0 1.3-0.1 1.5-0.5 0.225-0.45 0.525-0.5 2.5-0.5 1.98 0 2.28-0.05 2.5-0.5 0.25-0.5 0.525-0.5 12.9-0.5h12.7l0.475 0.55m63 0 0.475 0.575 0.475-0.575c0.475-0.55 0.55-0.55 5.7-0.5l5.2 0.075 0.075 0.675c0.075 0.6-6.12 6.88-54.7 55.4l-54.8 54.8h-1.05c-0.925 0-1.2-0.125-1.95-1-0.625-0.7-1.07-1-1.55-1-0.425 0-0.775-0.2-0.95-0.5-0.175-0.325-0.525-0.5-1-0.5-0.475 0-0.825-0.175-1-0.5-0.175-0.3-0.525-0.5-0.95-0.5-0.475 0-0.925-0.3-1.55-1-0.625-0.7-1.07-1-1.55-1-0.425 0-0.775-0.2-0.95-0.5-0.175-0.325-0.525-0.5-1-0.5-0.475 0-0.825-0.175-1-0.5-0.175-0.325-0.525-0.5-1-0.5-0.475 0-0.825-0.175-1-0.5-0.175-0.325-0.525-0.5-1-0.5-0.475 0-0.825-0.175-1-0.5-0.2-0.4-0.525-0.5-1.5-0.5-0.975 0-1.3-0.1-1.5-0.5-0.175-0.325-0.525-0.5-1-0.5-0.475 0-0.825-0.175-1-0.5-0.175-0.325-0.525-0.5-1-0.5-0.475 0-0.825-0.175-1-0.5-0.2-0.35-0.525-0.5-1.12-0.5-0.475 0-0.875-0.125-0.875-0.25 0-0.15 21.9-22.2 48.7-49l48.7-48.7 27.2-0.05 0.475 0.55m66.9 74.2 0.05 19.7-48.8 48.8c-26.8 26.8-48.8 48.8-49 48.8-0.125 0-0.25-0.4-0.25-0.875 0-0.6-0.15-0.925-0.5-1.12-0.325-0.175-0.5-0.525-0.5-1 0-0.475-0.175-0.825-0.5-1-0.325-0.175-0.5-0.525-0.5-1 0-0.475-0.175-0.825-0.5-1-0.4-0.2-0.5-0.525-0.5-1.5 0-0.975-0.1-1.3-0.5-1.5-0.325-0.175-0.5-0.525-0.5-1 0-0.475-0.175-0.825-0.5-1-0.325-0.175-0.5-0.525-0.5-1 0-0.475-0.175-0.825-0.5-1-0.325-0.175-0.5-0.525-0.5-1 0-0.475-0.175-0.825-0.5-1-0.3-0.175-0.5-0.525-0.5-0.95 0-0.475-0.3-0.925-1-1.55-0.7-0.625-1-1.08-1-1.55 0-0.425-0.2-0.775-0.5-0.95-0.325-0.175-0.5-0.525-0.5-1 0-0.475-0.175-0.825-0.5-1-0.325-0.175-0.5-0.525-0.5-1 0-0.475-0.175-0.825-0.5-1-0.325-0.175-0.5-0.525-0.5-1 0-0.475-0.175-0.825-0.5-1-0.3-0.15-0.5-0.525-0.5-0.875 0-0.5 11.5-12.2 54.7-55.4 49.9-50 54.8-54.8 55.4-54.7l0.75 0.05 0.075 19.7" fill="#252525" fill-rule="evenodd"/><path d="m241 8.5c0.225 0.425 0.525 0.5 2 0.5 1.48 0 1.78 0.075 2 0.5 0.15 0.3 0.525 0.5 0.9 0.5 0.875 0 6.1 5.22 6.1 6.1 0 0.375 0.2 0.75 0.5 0.9 0.425 0.225 0.5 0.525 0.5 2 0 1.47 0.075 1.77 0.5 2 0.475 0.25 0.5 0.525 0.5 3.88v3.62l-62.2 62.2c-41.8 41.8-62.4 62.2-62.8 62.2-0.325 0-3.6-3.1-9.48-8.98-7.02-7.02-9.12-9-9.7-9.07-0.65-0.075-0.7-0.175-0.775-1.25l-0.075-1.18 124-124 3.68-0.025c3.45-0.025 3.7 0 3.95 0.475" fill="#ffb72d" fill-rule="evenodd"/></svg>
