<?xml version="1.0" standalone="no"?>
<!DOCTYPE svg PUBLIC "-//W3C//DTD SVG 20010904//EN"
 "http://www.w3.org/TR/2001/REC-SVG-20010904/DTD/svg10.dtd">
<svg version="1.0" xmlns="http://www.w3.org/2000/svg"
 width="100.000000pt" height="119.000000pt" viewBox="0 0 100.000000 119.000000"
 preserveAspectRatio="xMidYMid meet">
<metadata>
Created by potrace 1.10, written by Peter Selinger 2001-2011
</metadata>
<g transform="translate(0.000000,119.000000) scale(0.050000,-0.050000)"
fill="#48434c" stroke="none">
<path d="M968 2338 c-178 -42 -279 -173 -401 -524 -123 -353 -200 -474 -408
-646 -141 -116 -150 -161 -50 -241 64 -51 67 -58 38 -91 -60 -65 55 -273 120
-218 56 46 159 -100 122 -174 -60 -120 17 -178 203 -155 l108 14 0 -71 c0
-155 367 -285 515 -181 l45 31 -40 78 c-50 98 -51 94 18 104 49 7 64 -3 104
-68 53 -85 62 -89 107 -45 36 37 40 114 8 174 -19 37 -15 49 34 88 l57 45 76
-69 c84 -76 142 -86 217 -36 129 86 131 156 7 258 -90 74 -92 76 -53 107 95
75 94 116 -2 203 -166 152 -242 418 -219 769 29 447 -239 734 -606 648z m368
-83 c163 -108 192 -193 206 -605 16 -452 73 -631 238 -753 73 -54 75 -76 9
-138 -65 -61 -96 -44 -186 103 -37 59 -60 86 -52 58 25 -88 125 -214 229 -290
131 -96 155 -140 107 -194 -84 -93 -232 -121 -187 -35 28 51 31 45 -93 183
-116 130 -205 289 -209 376 -2 31 -6 38 -11 17 -18 -67 36 -199 134 -328 111
-147 112 -149 66 -149 -18 0 -64 -23 -101 -52 -38 -29 -71 -49 -75 -45 -25 28
-85 167 -115 267 -35 116 -36 117 -26 30 5 -49 46 -160 90 -247 44 -86 80
-158 80 -160 0 -1 -56 -3 -125 -3 -69 0 -144 -7 -168 -16 -53 -19 -65 35 -88
386 -15 223 -15 221 -8 -70 9 -375 16 -404 102 -445 166 -80 -28 -140 -245
-76 -147 44 -186 77 -145 124 24 27 36 98 46 257 8 121 31 305 53 408 21 104
34 192 30 197 -19 19 -92 -365 -105 -550 -12 -192 -15 -202 -51 -183 -26 14
-69 14 -137 0 -237 -51 -242 -10 -49 422 83 184 150 346 150 360 0 14 -60
-104 -132 -264 -158 -347 -138 -324 -203 -239 -90 116 -183 203 -204 189 -12
-7 -21 -4 -21 6 0 11 27 30 59 44 65 27 203 166 240 242 17 36 12 33 -22 -12
-149 -196 -182 -211 -282 -129 -98 81 -96 92 47 209 170 140 278 292 355 501
37 99 90 241 118 317 121 326 427 455 681 287z"/>
<path d="M946 1971 c-55 -117 29 -238 113 -162 84 76 64 231 -29 231 -38 0
-59 -17 -84 -69z"/>
<path d="M1214 1964 c-42 -46 -45 -170 -5 -203 43 -36 103 -8 132 62 51 122
-47 230 -127 141z"/>
</g>
</svg>
